<svg width="17" height="17" viewBox="0 0 17 17" fill="none" xmlns="http://www.w3.org/2000/svg">
<path d="M16.3538 2.13003L2.13049 16.3533C1.77361 16.7102 1.15162 16.6675 0.74211 16.258C0.332598 15.8485 0.289881 15.2265 0.646758 14.8696L14.8701 0.646299C15.2269 0.289423 15.8489 0.332141 16.2584 0.741653C16.6679 1.15116 16.7107 1.77315 16.3538 2.13003Z" fill="white"/>
<path d="M14.8712 16.3535L0.64789 2.13024C0.291013 1.77337 0.333731 1.15138 0.743242 0.741866C1.15275 0.332354 1.77474 0.289637 2.13162 0.646514L16.3549 14.8698C16.7118 15.2267 16.6691 15.8487 16.2596 16.2582C15.8501 16.6677 15.2281 16.7104 14.8712 16.3535Z" fill="white"/>
</svg>
